<svg xmlns="http://www.w3.org/2000/svg" version="1.1" xmlns:xlink="http://www.w3.org/1999/xlink" xmlns:svgjs="http://svgjs.com/svgjs" width="1440" height="700" preserveAspectRatio="none" viewBox="0 0 1440 700"><g mask="url(&quot;#SvgjsMask1272&quot;)" fill="none"><rect width="1440" height="700" x="0" y="0" fill="rgba(0, 0, 0, 1)"></rect><path d="M0 38.89C12.96 6.48 32.14 8.41 70 0C119.64 -11.03 122.5 0 175 0C262.5 0 262.5 0 350 0C437.5 0 437.5 0 525 0C612.5 0 612.5 0 700 0C787.5 0 787.5 0 875 0C962.5 0 962.5 0 1050 0C1137.5 0 1137.5 0 1225 0C1312.5 0 1312.5 0 1400 0C1487.5 0 1531.25 -43.75 1575 0C1618.75 43.75 1575 87.5 1575 175C1575 188.81 1584.74 193.61 1575 202.63C1497.24 274.63 1488.92 272.14 1400 337.04C1387.96 345.83 1373.08 342.95 1373.08 350C1373.08 357.38 1389.46 354.49 1400 365.91C1470.23 441.99 1490.56 434.74 1534.62 525C1572.1 601.79 1598.13 654.42 1563.07 700C1530.82 741.92 1481.53 700 1400 700C1322.01 700 1318.4 708.45 1244.02 700C1230.9 698.51 1237.38 680.11 1225 680.11C1188.1 680.11 1185.88 695.4 1145.45 700C1098.38 705.35 1097.72 700 1050 700C962.5 700 962.5 700 875 700C787.5 700 787.5 700 700 700C612.5 700 612.5 700 525 700C437.5 700 437.5 700 350 700C262.5 700 262.5 700 175 700C87.5 700 87.5 700 0 700C0 700 0 700 0 700C0 612.5 0 612.5 0 525C0 460.47 -20.25 449.93 0 395.94C12.57 362.43 65.63 376.95 65.63 350C65.63 316.48 16.38 318.68 0 275C-16.44 231.18 0 225 0 175C0 106.94 -22.04 93.98 0 38.89" stroke="rgba(22, 22, 22, 1)" stroke-width="2"></path><path d="M700 221.67C624.91 260.88 575.81 297.22 575.81 350C575.81 390.55 634.32 393.32 700 408.33C783.91 427.5 790.23 431.59 875 418.36C965.23 404.28 962.28 385.35 1050 353.72C1057.07 351.17 1064.58 352.26 1064.58 350C1064.58 347.66 1055.99 349.46 1050 344.53C961.2 271.34 974.03 228.51 875 193.75C799.03 167.08 774.51 182.76 700 221.67" stroke="rgba(22, 22, 22, 1)" stroke-width="2"></path><path d="M350 460.53C325.01 460.53 318.18 492.6 318.18 525C318.18 558.86 324.57 593.06 350 593.06C391.52 593.06 452.08 558.4 452.08 525C452.08 492.13 391.96 460.53 350 460.53" stroke="rgba(22, 22, 22, 1)" stroke-width="2"></path><path d="M0 160.42C26.96 160.42 65.62 168.64 65.62 175C65.62 181.29 28.26 185.71 0 185.71C-4.55 185.71 0 180.36 0 175C0 167.71 -5.85 160.42 0 160.42" stroke="rgba(22, 22, 22, 1)" stroke-width="2"></path><path d="M211.46 175C227.48 91.23 179.9 50.16 219.61 0C249.17 -37.34 284.81 0 350 0C437.5 0 437.5 0 525 0C612.5 0 612.5 0 700 0C781.02 0 862.04 -23.8 862.04 0C862.04 28.29 788.28 75.52 700 104.17C619.76 130.21 605.59 87.43 525 109.37C475.52 122.84 471.59 132.96 439.86 175C384.09 248.9 398.25 261.42 350 341.25C345.36 348.92 337.97 341.97 334.09 350C293.65 433.84 263.65 436.73 261.36 525C259.11 611.73 348.92 651.54 325 700C305.74 739.04 250 700 175 700C138.37 700 133.93 713.64 101.74 700C46.43 676.56 28.24 674.43 0 625.85C-22.63 586.93 0 575.42 0 525C0 487.82 -21.39 476.68 0 450.63C50.48 389.18 91.92 414.35 143.75 350C179.42 305.7 153.43 289.08 175 233.33C187.28 201.58 205.17 207.89 211.46 175" stroke="rgba(22, 22, 22, 1)" stroke-width="2"></path><path d="M1012.5 175C951.27 91.1 887.47 50.7 898.33 0C906.22 -36.8 974.16 0 1050 0C1137.5 0 1137.5 0 1225 0C1312.5 0 1312.5 0 1400 0C1487.5 0 1509.37 -21.87 1575 0C1596.87 7.29 1594 39.33 1575 58.33C1506.5 126.83 1487.5 116.66 1400 175C1400 175 1400 175 1400 175C1312.5 180.83 1312.28 178.49 1225 186.67C1137.28 194.89 1132.83 212.36 1050 207.81C1026.58 206.52 1027.1 195.01 1012.5 175" stroke="rgba(22, 22, 22, 1)" stroke-width="2"></path><path d="M602.21 525C643.32 490.33 647.43 482 700 474.62C783.83 462.86 788.5 493.59 875 486.72C963.5 479.69 961.45 459.26 1050 446.81C1136.45 434.65 1144.56 416.81 1225 437.5C1296.53 455.9 1353.95 487.35 1353.95 525C1353.95 558.94 1291.88 560.46 1225 580.68C1139.91 606.4 1138.14 612.76 1050 616.88C963.14 620.95 953.15 575.41 875 597.06C803.15 616.97 816.86 660.67 750 700C729.36 712.14 725 700 700 700C612.5 700 612.5 700 525 700C455 700 385 718.14 385 700C385 679.25 463.82 671.51 525 622.22C572.43 584.01 555.82 564.13 602.21 525" stroke="rgba(22, 22, 22, 1)" stroke-width="2"></path><path d="M1339.13 700C1339.13 652.9 1369 566.67 1400 566.67C1431.25 566.67 1463.64 653.41 1463.64 700C1463.64 720.07 1431.82 700 1400 700C1369.57 700 1339.13 719.56 1339.13 700" stroke="rgba(22, 22, 22, 1)" stroke-width="2"></path><path d="M350 119.74C307.49 116.21 305.39 44.38 305.39 0C305.39 -15.49 327.69 0 350 0C437.5 0 437.5 0 525 0C612.5 0 700 -4.55 700 0C700 4.57 606.4 -9.62 525 18.23C431.4 50.25 417.3 125.33 350 119.74" stroke="rgba(22, 22, 22, 1)" stroke-width="2"></path><path d="M1400 53.47C1355.22 53.47 1308.33 14.34 1308.33 0C1308.33 -12.39 1354.16 0 1400 0C1438.5 0 1477 -12.06 1477 0C1477 14.68 1439.56 53.47 1400 53.47" stroke="rgba(22, 22, 22, 1)" stroke-width="2"></path><path d="M0 505.31C79.1 468.58 105.24 437.03 175 443.75C207.51 446.88 204.55 483.68 204.55 525C204.55 581.18 213.4 633.74 175 638.75C111.13 647.08 76.99 601.73 0 551.69C-10.51 544.86 0 538.35 0 525C0 515.15 -8.4 509.21 0 505.31" stroke="rgba(22, 22, 22, 1)" stroke-width="2"></path></g><defs><mask id="SvgjsMask1272"><rect width="1440" height="700" fill="#ffffff"></rect></mask></defs></svg>