<svg xmlns="http://www.w3.org/2000/svg" version="1.1" xmlns:xlink="http://www.w3.org/1999/xlink" xmlns:svgjs="http://svgjs.com/svgjs" width="1440" height="700" preserveAspectRatio="none" viewBox="0 0 1440 700"><g clip-path="url(&quot;#SvgjsClipPath3122&quot;)" fill="none"><rect width="1440" height="700" x="0" y="0" fill="url(#SvgjsLinearGradient3123)"></rect><circle r="116.665" cx="-97.37" cy="-3.36" stroke="#181818" stroke-opacity="1" stroke-width="2"></circle><circle r="116.665" cx="394.73" cy="384.7" stroke="#181818" stroke-opacity="1" stroke-width="2"></circle><circle r="116.665" cx="849.18" cy="972.88" stroke="#181818" stroke-opacity="1" stroke-width="2"></circle><circle r="75.5" cx="528.64" cy="203.12" stroke="#181818" stroke-opacity="1" stroke-width="2"></circle><circle r="189.53" cx="1045.32" cy="580.95" stroke="#181818" stroke-opacity="1" stroke-width="2"></circle><circle r="174.955" cx="444.14" cy="228.91" stroke="#181818" stroke-opacity="1" stroke-width="2"></circle><circle r="198.155" cx="177.47" cy="73.39" stroke="#181818" stroke-opacity="1" stroke-width="2"></circle><circle r="110.315" cx="814.02" cy="402.67" stroke="#181818" stroke-opacity="1" stroke-width="2"></circle><circle r="230.57" cx="423.39" cy="174.28" stroke="#181818" stroke-opacity="1" stroke-width="2"></circle><circle r="218.135" cx="290.48" cy="143.6" stroke="#181818" stroke-opacity="1" stroke-width="2"></circle><circle r="212.75" cx="981.91" cy="255.97" stroke="#181818" stroke-opacity="1" stroke-width="2"></circle><circle r="102.015" cx="700.07" cy="240.68" stroke="#181818" stroke-opacity="1" stroke-width="2"></circle><circle r="115.94" cx="1136.25" cy="385.48" stroke="#181818" stroke-opacity="1" stroke-width="2"></circle><circle r="177.52" cx="1047.21" cy="269.15" stroke="#181818" stroke-opacity="1" stroke-width="2"></circle><circle r="89.66" cx="1056.86" cy="562.69" stroke="#181818" stroke-opacity="1" stroke-width="2"></circle><circle r="139.54" cx="125.62" cy="619.13" stroke="#181818" stroke-opacity="1" stroke-width="2"></circle><circle r="181.785" cx="708.14" cy="69.92" stroke="#181818" stroke-opacity="1" stroke-width="2"></circle><circle r="98.87" cx="85.63" cy="247.74" stroke="#181818" stroke-opacity="1" stroke-width="2"></circle><circle r="154.645" cx="913.01" cy="31.26" stroke="#181818" stroke-opacity="1" stroke-width="2"></circle><circle r="145.25" cx="449.58" cy="178.53" stroke="#181818" stroke-opacity="1" stroke-width="2"></circle><circle r="170.435" cx="1048.93" cy="606.72" stroke="#181818" stroke-opacity="1" stroke-width="2"></circle><circle r="58.645" cx="618.8" cy="47.7" stroke="#181818" stroke-opacity="1" stroke-width="2"></circle><circle r="90.96" cx="1332.64" cy="332.22" stroke="#181818" stroke-opacity="1" stroke-width="2"></circle><circle r="81.46" cx="890.47" cy="28.96" stroke="#181818" stroke-opacity="1" stroke-width="2"></circle><circle r="182.245" cx="1121.02" cy="493.02" stroke="#181818" stroke-opacity="1" stroke-width="2"></circle><circle r="168.755" cx="899.54" cy="280.99" stroke="#181818" stroke-opacity="1" stroke-width="2"></circle><circle r="201.22" cx="566.29" cy="574.34" stroke="#181818" stroke-opacity="1" stroke-width="2"></circle><circle r="216.49" cx="66.4" cy="117.25" stroke="#181818" stroke-opacity="1" stroke-width="2"></circle><circle r="76.89" cx="774.08" cy="106.82" stroke="#181818" stroke-opacity="1" stroke-width="2"></circle><circle r="75.345" cx="267.78" cy="532.85" stroke="#181818" stroke-opacity="1" stroke-width="2"></circle><circle r="194.215" cx="372.48" cy="536.81" stroke="#181818" stroke-opacity="1" stroke-width="2"></circle><circle r="93.39" cx="15.76" cy="483.57" stroke="#181818" stroke-opacity="1" stroke-width="2"></circle><circle r="124.08" cx="509.12" cy="393.59" stroke="#181818" stroke-opacity="1" stroke-width="2"></circle><circle r="184.555" cx="245.16" cy="270.48" stroke="#181818" stroke-opacity="1" stroke-width="2"></circle><circle r="232.96" cx="151.62" cy="655.24" stroke="#181818" stroke-opacity="1" stroke-width="2"></circle><circle r="144.745" cx="621.29" cy="138.32" stroke="#181818" stroke-opacity="1" stroke-width="2"></circle><circle r="124.845" cx="250.03" cy="334.89" stroke="#181818" stroke-opacity="1" stroke-width="2"></circle><circle r="82.28" cx="992.87" cy="562.07" stroke="#181818" stroke-opacity="1" stroke-width="2"></circle><circle r="231" cx="352.47" cy="468.27" stroke="#181818" stroke-opacity="1" stroke-width="2"></circle><circle r="95.785" cx="196.01" cy="648.92" stroke="#181818" stroke-opacity="1" stroke-width="2"></circle><circle r="106.175" cx="95.8" cy="524.62" stroke="#181818" stroke-opacity="1" stroke-width="2"></circle><circle r="156.89" cx="920.55" cy="141.19" stroke="#181818" stroke-opacity="1" stroke-width="2"></circle><circle r="222.885" cx="998.01" cy="691.15" stroke="#181818" stroke-opacity="1" stroke-width="2"></circle><circle r="71.78" cx="405.87" cy="4.39" stroke="#181818" stroke-opacity="1" stroke-width="2"></circle><circle r="192.965" cx="315.19" cy="319.79" stroke="#181818" stroke-opacity="1" stroke-width="2"></circle><circle r="184.78" cx="1435.44" cy="330.71" stroke="#181818" stroke-opacity="1" stroke-width="2"></circle><circle r="127.375" cx="294.84" cy="119.3" stroke="#181818" stroke-opacity="1" stroke-width="2"></circle><circle r="92.22" cx="880.36" cy="471.99" stroke="#181818" stroke-opacity="1" stroke-width="2"></circle><circle r="92.45" cx="20.38" cy="527.7" stroke="#181818" stroke-opacity="1" stroke-width="2"></circle><circle r="64.42" cx="1361.47" cy="654.75" stroke="#181818" stroke-opacity="1" stroke-width="2"></circle></g><defs><clipPath id="SvgjsClipPath3122"><rect width="1440" height="700" x="0" y="0"></rect></clipPath><linearGradient x1="12.85%" y1="-26.43%" x2="87.15%" y2="126.43%" gradientUnits="userSpaceOnUse" id="SvgjsLinearGradient3123"><stop stop-color="rgba(36, 36, 36, 1)" offset="1"></stop><stop stop-color="rgba(31, 31, 31, 1)" offset="1"></stop></linearGradient></defs></svg>